<mxfile host="app.diagrams.net" agent="Mozilla/5.0 (X11; Linux x86_64) AppleWebKit/537.36 (KHTML, like Gecko) Chrome/129.0.0.0 Safari/537.36 Edg/129.0.0.0" version="24.7.17">
  <diagram name="第 1 页" id="wcV7i8w3KevxfxF6hoLu">
    <mxGraphModel dx="2253" dy="826" grid="1" gridSize="10" guides="1" tooltips="1" connect="1" arrows="1" fold="1" page="1" pageScale="1" pageWidth="827" pageHeight="1169" math="0" shadow="0">
      <root>
        <mxCell id="0" />
        <mxCell id="1" parent="0" />
        <mxCell id="ZVExHnR6AG2yCvFIqDIe-1" value="" style="rounded=0;whiteSpace=wrap;html=1;" parent="1" vertex="1">
          <mxGeometry x="-110" y="10" width="1070" height="1650" as="geometry" />
        </mxCell>
        <mxCell id="ZVExHnR6AG2yCvFIqDIe-24" value="" style="edgeStyle=orthogonalEdgeStyle;rounded=0;orthogonalLoop=1;jettySize=auto;html=1;" parent="1" source="ZVExHnR6AG2yCvFIqDIe-2" target="ZVExHnR6AG2yCvFIqDIe-19" edge="1">
          <mxGeometry relative="1" as="geometry" />
        </mxCell>
        <mxCell id="ZVExHnR6AG2yCvFIqDIe-2" value="开始" style="rounded=1;whiteSpace=wrap;html=1;" parent="1" vertex="1">
          <mxGeometry x="410" y="220" width="120" height="60" as="geometry" />
        </mxCell>
        <mxCell id="ZVExHnR6AG2yCvFIqDIe-9" value="" style="edgeStyle=orthogonalEdgeStyle;rounded=0;orthogonalLoop=1;jettySize=auto;html=1;" parent="1" source="ZVExHnR6AG2yCvFIqDIe-6" target="ZVExHnR6AG2yCvFIqDIe-8" edge="1">
          <mxGeometry relative="1" as="geometry" />
        </mxCell>
        <mxCell id="ZVExHnR6AG2yCvFIqDIe-6" value="提取DAP软件包中的依赖信息，上传至DAP缓存服务器" style="rounded=0;whiteSpace=wrap;html=1;" parent="1" vertex="1">
          <mxGeometry x="380" y="530" width="180" height="60" as="geometry" />
        </mxCell>
        <mxCell id="ZVExHnR6AG2yCvFIqDIe-12" value="" style="edgeStyle=orthogonalEdgeStyle;rounded=0;orthogonalLoop=1;jettySize=auto;html=1;" parent="1" source="ZVExHnR6AG2yCvFIqDIe-8" target="ZVExHnR6AG2yCvFIqDIe-10" edge="1">
          <mxGeometry relative="1" as="geometry" />
        </mxCell>
        <mxCell id="ZVExHnR6AG2yCvFIqDIe-8" value="DAP缓存服务端对此DAP包和已上传的DAP包的依赖信息进行分析，自动识别出此包的多层依赖关系" style="rounded=0;whiteSpace=wrap;html=1;" parent="1" vertex="1">
          <mxGeometry x="380" y="630" width="180" height="60" as="geometry" />
        </mxCell>
        <mxCell id="ZVExHnR6AG2yCvFIqDIe-14" value="" style="edgeStyle=orthogonalEdgeStyle;rounded=0;orthogonalLoop=1;jettySize=auto;html=1;" parent="1" source="ZVExHnR6AG2yCvFIqDIe-10" target="ZVExHnR6AG2yCvFIqDIe-13" edge="1">
          <mxGeometry relative="1" as="geometry" />
        </mxCell>
        <mxCell id="ZVExHnR6AG2yCvFIqDIe-10" value="DAP缓存服务端基于多层依赖关系数据，生成Graphviz代码" style="rounded=0;whiteSpace=wrap;html=1;" parent="1" vertex="1">
          <mxGeometry x="380" y="725" width="180" height="60" as="geometry" />
        </mxCell>
        <mxCell id="ZVExHnR6AG2yCvFIqDIe-18" value="" style="edgeStyle=orthogonalEdgeStyle;rounded=0;orthogonalLoop=1;jettySize=auto;html=1;" parent="1" source="ZVExHnR6AG2yCvFIqDIe-13" target="ZVExHnR6AG2yCvFIqDIe-17" edge="1">
          <mxGeometry relative="1" as="geometry" />
        </mxCell>
        <mxCell id="ZVExHnR6AG2yCvFIqDIe-13" value="DAP客户端从DAP缓存服务端下载Graphviz代码" style="rounded=0;whiteSpace=wrap;html=1;" parent="1" vertex="1">
          <mxGeometry x="380" y="820" width="180" height="60" as="geometry" />
        </mxCell>
        <mxCell id="ZVExHnR6AG2yCvFIqDIe-15" value="结束" style="rounded=1;whiteSpace=wrap;html=1;" parent="1" vertex="1">
          <mxGeometry x="410" y="1040" width="120" height="60" as="geometry" />
        </mxCell>
        <mxCell id="ZVExHnR6AG2yCvFIqDIe-25" value="" style="edgeStyle=orthogonalEdgeStyle;rounded=0;orthogonalLoop=1;jettySize=auto;html=1;" parent="1" source="ZVExHnR6AG2yCvFIqDIe-17" target="ZVExHnR6AG2yCvFIqDIe-15" edge="1">
          <mxGeometry relative="1" as="geometry" />
        </mxCell>
        <mxCell id="ZVExHnR6AG2yCvFIqDIe-17" value="DAP客户端基于Graphviz代码在本地web浏览器渲染展示" style="rounded=0;whiteSpace=wrap;html=1;" parent="1" vertex="1">
          <mxGeometry x="380" y="930" width="180" height="60" as="geometry" />
        </mxCell>
        <mxCell id="ZVExHnR6AG2yCvFIqDIe-23" value="" style="edgeStyle=orthogonalEdgeStyle;rounded=0;orthogonalLoop=1;jettySize=auto;html=1;" parent="1" source="ZVExHnR6AG2yCvFIqDIe-19" target="ZVExHnR6AG2yCvFIqDIe-20" edge="1">
          <mxGeometry relative="1" as="geometry" />
        </mxCell>
        <mxCell id="ZVExHnR6AG2yCvFIqDIe-19" value="制作包" style="rounded=0;whiteSpace=wrap;html=1;" parent="1" vertex="1">
          <mxGeometry x="380" y="320" width="180" height="60" as="geometry" />
        </mxCell>
        <mxCell id="ZVExHnR6AG2yCvFIqDIe-22" value="" style="edgeStyle=orthogonalEdgeStyle;rounded=0;orthogonalLoop=1;jettySize=auto;html=1;" parent="1" source="ZVExHnR6AG2yCvFIqDIe-20" target="ZVExHnR6AG2yCvFIqDIe-6" edge="1">
          <mxGeometry relative="1" as="geometry" />
        </mxCell>
        <mxCell id="ZVExHnR6AG2yCvFIqDIe-20" value="上传包" style="rounded=0;whiteSpace=wrap;html=1;" parent="1" vertex="1">
          <mxGeometry x="380" y="430" width="180" height="60" as="geometry" />
        </mxCell>
      </root>
    </mxGraphModel>
  </diagram>
</mxfile>
